<svg width="225" height="60" viewBox="0 0 225 60" fill="none" xmlns="http://www.w3.org/2000/svg">
<rect width="60" height="60" rx="5" fill="#E9ECF2"/>
<path d="M11.3876 31.9351H19.0876L20.2324 41.3075C20.277 41.7475 20.6277 42.0552 21.0676 42.0999H21.1123C21.5076 42.0999 21.86 41.8352 21.9476 41.4399L26.3476 24.4123L31.0125 39.8572C31.1448 40.2525 31.4972 40.5172 31.9372 40.4725C32.3325 40.4278 32.6849 40.1202 32.7296 39.6802L33.6543 31.4953H41.5743C42.059 31.4953 42.4543 31.1 42.4543 30.6153V30.5706C42.4543 30.5259 42.4543 30.4383 42.4096 30.3953C42.4096 30.3506 42.4096 30.3506 42.3649 30.3076C42.3649 30.2629 42.3202 30.22 42.3202 30.1753C42.3202 30.1753 42.3202 30.1306 42.2755 30.1306C42.2308 30.0859 42.1879 30.0429 42.1432 29.9553L42.0985 29.9106C42.0538 29.8659 42.0108 29.8659 41.9661 29.8229H41.9215C39.5015 28.5476 35.9366 25.4229 35.4966 22.8278C35.3642 21.9478 35.5842 21.1555 36.2442 20.4955C37.6519 19.0002 39.6319 19.9678 41.0393 21.0231C41.347 21.2431 41.787 21.2431 42.0946 21.0231C43.5023 19.9678 45.4393 19.0431 46.8471 20.5384C47.3747 21.1108 47.6394 21.7261 47.6394 22.4737C47.5947 23.8814 46.5394 25.5984 44.6471 27.3586C44.2947 27.7109 44.2518 28.2386 44.6024 28.5909C44.9547 28.9433 45.4824 28.9863 45.8348 28.6356C47.4195 27.1833 49.31 24.8956 49.3995 22.5205C49.4441 21.3329 49.0041 20.2329 48.1242 19.3529C46.4518 17.5929 44.0765 17.5929 41.569 19.3082C39.0167 17.5929 36.6415 17.6358 34.969 19.3529C33.9567 20.4082 33.5167 21.7729 33.7814 23.1805C34.1767 25.5558 36.3767 28.0654 38.6214 29.7805H32.9476C32.5076 29.7805 32.1123 30.1329 32.0676 30.5729L31.5399 35.3253L27.1846 20.9377C27.0523 20.5424 26.7446 20.3224 26.3046 20.3224C25.9093 20.3224 25.557 20.5871 25.4694 20.9824L21.4646 36.5576L20.7599 30.9682C20.7153 30.5282 20.3199 30.1759 19.8799 30.1759H11.3875C10.9028 30.1759 10.5075 30.5712 10.5075 31.0559C10.5075 31.5406 10.9045 31.9359 11.3875 31.9359L11.3876 31.9351Z" fill="black"/>
<path d="M84.057 24.27C83.109 24.27 82.254 24.105 81.492 23.775C80.736 23.445 80.112 22.974 79.62 22.362C79.134 21.744 78.825 21.012 78.693 20.166L80.943 19.824C81.135 20.592 81.528 21.186 82.122 21.606C82.722 22.026 83.412 22.236 84.192 22.236C84.654 22.236 85.089 22.164 85.497 22.02C85.905 21.876 86.235 21.666 86.487 21.39C86.745 21.114 86.874 20.775 86.874 20.373C86.874 20.193 86.844 20.028 86.784 19.878C86.724 19.722 86.634 19.584 86.514 19.464C86.4 19.344 86.25 19.236 86.064 19.14C85.884 19.038 85.674 18.951 85.434 18.879L82.086 17.889C81.798 17.805 81.486 17.694 81.15 17.556C80.82 17.412 80.505 17.217 80.205 16.971C79.911 16.719 79.668 16.401 79.476 16.017C79.29 15.627 79.197 15.147 79.197 14.577C79.197 13.743 79.407 13.044 79.827 12.48C80.253 11.91 80.823 11.484 81.537 11.202C82.257 10.92 83.055 10.782 83.931 10.788C84.819 10.794 85.611 10.947 86.307 11.247C87.003 11.541 87.585 11.97 88.053 12.534C88.521 13.098 88.851 13.779 89.043 14.577L86.712 14.982C86.616 14.526 86.43 14.139 86.154 13.821C85.884 13.497 85.551 13.251 85.155 13.083C84.765 12.915 84.348 12.825 83.904 12.813C83.472 12.807 83.07 12.873 82.698 13.011C82.332 13.143 82.035 13.335 81.807 13.587C81.585 13.839 81.474 14.133 81.474 14.469C81.474 14.787 81.57 15.048 81.762 15.252C81.954 15.45 82.191 15.609 82.473 15.729C82.761 15.843 83.052 15.939 83.346 16.017L85.668 16.665C85.986 16.749 86.343 16.863 86.739 17.007C87.135 17.151 87.516 17.352 87.882 17.61C88.248 17.868 88.548 18.207 88.782 18.627C89.022 19.047 89.142 19.581 89.142 20.229C89.142 20.901 89.001 21.492 88.719 22.002C88.443 22.506 88.068 22.926 87.594 23.262C87.12 23.598 86.577 23.85 85.965 24.018C85.359 24.186 84.723 24.27 84.057 24.27ZM96.4271 24C95.7851 24.12 95.1551 24.171 94.5371 24.153C93.9251 24.141 93.3761 24.03 92.8901 23.82C92.4041 23.604 92.0351 23.265 91.7831 22.803C91.5611 22.383 91.4441 21.954 91.4321 21.516C91.4201 21.078 91.4141 20.583 91.4141 20.031V11.58H93.5741V19.905C93.5741 20.295 93.5771 20.637 93.5831 20.931C93.5951 21.225 93.6581 21.465 93.7721 21.651C93.9881 22.011 94.3331 22.212 94.8071 22.254C95.2811 22.296 95.8211 22.272 96.4271 22.182V24ZM89.6501 15.981V14.28H96.4271V15.981H89.6501ZM100.875 24.27C100.173 24.27 99.5792 24.138 99.0932 23.874C98.6072 23.604 98.2382 23.247 97.9862 22.803C97.7402 22.359 97.6172 21.87 97.6172 21.336C97.6172 20.868 97.6952 20.448 97.8512 20.076C98.0072 19.698 98.2472 19.374 98.5712 19.104C98.8952 18.828 99.3152 18.603 99.8312 18.429C100.221 18.303 100.677 18.189 101.199 18.087C101.727 17.985 102.297 17.892 102.909 17.808C103.527 17.718 104.172 17.622 104.844 17.52L104.07 17.961C104.076 17.289 103.926 16.794 103.62 16.476C103.314 16.158 102.798 15.999 102.072 15.999C101.634 15.999 101.211 16.101 100.803 16.305C100.395 16.509 100.11 16.86 99.9482 17.358L97.9682 16.737C98.2082 15.915 98.6642 15.255 99.3362 14.757C100.014 14.259 100.926 14.01 102.072 14.01C102.936 14.01 103.695 14.151 104.349 14.433C105.009 14.715 105.498 15.177 105.816 15.819C105.99 16.161 106.095 16.512 106.131 16.872C106.167 17.226 106.185 17.613 106.185 18.033V24H104.286V21.894L104.601 22.236C104.163 22.938 103.65 23.454 103.062 23.784C102.48 24.108 101.751 24.27 100.875 24.27ZM101.307 22.542C101.799 22.542 102.219 22.455 102.567 22.281C102.915 22.107 103.191 21.894 103.395 21.642C103.605 21.39 103.746 21.153 103.818 20.931C103.932 20.655 103.995 20.34 104.007 19.986C104.025 19.626 104.034 19.335 104.034 19.113L104.7 19.311C104.046 19.413 103.485 19.503 103.017 19.581C102.549 19.659 102.147 19.734 101.811 19.806C101.475 19.872 101.178 19.947 100.92 20.031C100.668 20.121 100.455 20.226 100.281 20.346C100.107 20.466 99.9722 20.604 99.8762 20.76C99.7862 20.916 99.7412 21.099 99.7412 21.309C99.7412 21.549 99.8012 21.762 99.9212 21.948C100.041 22.128 100.215 22.272 100.443 22.38C100.677 22.488 100.965 22.542 101.307 22.542ZM112.839 24.27C111.891 24.27 111.096 24.045 110.454 23.595C109.812 23.145 109.329 22.533 109.005 21.759C108.681 20.979 108.519 20.106 108.519 19.14C108.519 18.162 108.681 17.286 109.005 16.512C109.329 15.738 109.803 15.129 110.427 14.685C111.057 14.235 111.834 14.01 112.758 14.01C113.676 14.01 114.471 14.235 115.143 14.685C115.821 15.129 116.346 15.738 116.718 16.512C117.09 17.28 117.276 18.156 117.276 19.14C117.276 20.112 117.093 20.985 116.727 21.759C116.361 22.533 115.845 23.145 115.179 23.595C114.513 24.045 113.733 24.27 112.839 24.27ZM108.15 24V11.04H110.337V17.178H110.067V24H108.15ZM112.506 22.326C113.07 22.326 113.535 22.185 113.901 21.903C114.267 21.621 114.537 21.24 114.711 20.76C114.891 20.274 114.981 19.734 114.981 19.14C114.981 18.552 114.891 18.018 114.711 17.538C114.531 17.052 114.252 16.668 113.874 16.386C113.496 16.098 113.016 15.954 112.434 15.954C111.882 15.954 111.432 16.089 111.084 16.359C110.736 16.623 110.478 16.995 110.31 17.475C110.148 17.949 110.067 18.504 110.067 19.14C110.067 19.77 110.148 20.325 110.31 20.805C110.478 21.285 110.739 21.66 111.093 21.93C111.453 22.194 111.924 22.326 112.506 22.326ZM119.08 24V10.77H121.249V24H119.08ZM128.004 24.27C127.02 24.27 126.156 24.057 125.412 23.631C124.668 23.205 124.086 22.614 123.666 21.858C123.252 21.102 123.045 20.232 123.045 19.248C123.045 18.186 123.249 17.265 123.657 16.485C124.065 15.699 124.632 15.09 125.358 14.658C126.084 14.226 126.924 14.01 127.878 14.01C128.886 14.01 129.741 14.247 130.443 14.721C131.151 15.189 131.676 15.852 132.018 16.71C132.36 17.568 132.489 18.579 132.405 19.743H130.254V18.951C130.248 17.895 130.062 17.124 129.696 16.638C129.33 16.152 128.754 15.909 127.968 15.909C127.08 15.909 126.42 16.185 125.988 16.737C125.556 17.283 125.34 18.084 125.34 19.14C125.34 20.124 125.556 20.886 125.988 21.426C126.42 21.966 127.05 22.236 127.878 22.236C128.412 22.236 128.871 22.119 129.255 21.885C129.645 21.645 129.945 21.3 130.155 20.85L132.297 21.498C131.925 22.374 131.349 23.055 130.569 23.541C129.795 24.027 128.94 24.27 128.004 24.27ZM124.656 19.743V18.105H131.343V19.743H124.656ZM139.367 24L136.397 14.262L138.521 14.28L140.42 20.517L142.346 14.28H144.173L146.09 20.517L147.998 14.28H150.122L147.152 24H145.46L143.255 17.313L141.059 24H139.367ZM155.327 24.27C154.355 24.27 153.506 24.051 152.78 23.613C152.054 23.175 151.49 22.572 151.088 21.804C150.692 21.03 150.494 20.142 150.494 19.14C150.494 18.12 150.698 17.226 151.106 16.458C151.514 15.69 152.081 15.09 152.807 14.658C153.533 14.226 154.373 14.01 155.327 14.01C156.305 14.01 157.157 14.229 157.883 14.667C158.609 15.105 159.173 15.711 159.575 16.485C159.977 17.253 160.178 18.138 160.178 19.14C160.178 20.148 159.974 21.039 159.566 21.813C159.164 22.581 158.6 23.184 157.874 23.622C157.148 24.054 156.299 24.27 155.327 24.27ZM155.327 22.236C156.191 22.236 156.833 21.948 157.253 21.372C157.673 20.796 157.883 20.052 157.883 19.14C157.883 18.198 157.67 17.448 157.244 16.89C156.818 16.326 156.179 16.044 155.327 16.044C154.745 16.044 154.265 16.176 153.887 16.44C153.515 16.698 153.239 17.061 153.059 17.529C152.879 17.991 152.789 18.528 152.789 19.14C152.789 20.082 153.002 20.835 153.428 21.399C153.86 21.957 154.493 22.236 155.327 22.236ZM161.801 24V14.28H163.718V16.647L163.484 16.341C163.604 16.017 163.763 15.723 163.961 15.459C164.165 15.189 164.408 14.967 164.69 14.793C164.93 14.631 165.194 14.505 165.482 14.415C165.776 14.319 166.076 14.262 166.382 14.244C166.688 14.22 166.985 14.232 167.273 14.28V16.305C166.985 16.221 166.652 16.194 166.274 16.224C165.902 16.254 165.566 16.359 165.266 16.539C164.966 16.701 164.72 16.908 164.528 17.16C164.342 17.412 164.204 17.7 164.114 18.024C164.024 18.342 163.979 18.687 163.979 19.059V24H161.801ZM168.613 24L168.631 11.04H170.827V18.96L174.382 14.28H177.091L173.32 19.14L177.415 24H174.544L170.827 19.32V24H168.613ZM185.493 24.27C184.773 24.27 184.092 24.165 183.45 23.955C182.814 23.739 182.283 23.4 181.857 22.938C181.515 22.56 181.263 22.149 181.101 21.705C180.945 21.255 180.858 20.775 180.84 20.265C180.84 19.767 180.912 19.284 181.056 18.816C181.206 18.348 181.434 17.934 181.74 17.574C181.86 17.43 181.989 17.304 182.127 17.196C182.271 17.082 182.415 16.98 182.559 16.89C182.205 16.494 181.935 16.11 181.749 15.738C181.569 15.366 181.479 14.928 181.479 14.424C181.479 13.668 181.683 12.99 182.091 12.39C182.499 11.79 183.054 11.358 183.756 11.094C184.062 10.98 184.371 10.902 184.683 10.86C185.001 10.818 185.31 10.797 185.61 10.797C186.174 10.797 186.717 10.884 187.239 11.058C187.761 11.226 188.205 11.502 188.571 11.886C188.805 12.108 189 12.36 189.156 12.642C189.312 12.918 189.429 13.203 189.507 13.497L187.365 13.956C187.281 13.686 187.134 13.455 186.924 13.263C186.744 13.089 186.531 12.975 186.285 12.921C186.039 12.861 185.796 12.831 185.556 12.831C185.172 12.831 184.833 12.9 184.539 13.038C184.245 13.176 184.026 13.362 183.882 13.596C183.744 13.83 183.675 14.115 183.675 14.451C183.675 14.751 183.729 14.991 183.837 15.171C183.951 15.351 184.089 15.534 184.251 15.72C184.359 15.84 184.491 15.972 184.647 16.116C184.803 16.26 184.965 16.41 185.133 16.566L188.391 19.581C188.397 19.461 188.4 19.332 188.4 19.194C188.4 19.05 188.4 18.915 188.4 18.789V17.205H190.308V19.554C190.308 19.878 190.299 20.193 190.281 20.499C190.263 20.799 190.227 21.048 190.173 21.246L191.784 22.722L190.389 24.207L189.138 23.019C188.832 23.307 188.496 23.541 188.13 23.721C187.764 23.901 187.395 24.03 187.023 24.108C186.753 24.174 186.495 24.216 186.249 24.234C186.003 24.258 185.751 24.27 185.493 24.27ZM185.583 22.209C185.769 22.209 185.943 22.2 186.105 22.182C186.273 22.164 186.435 22.128 186.591 22.074C186.813 22.008 187.002 21.93 187.158 21.84C187.32 21.75 187.461 21.657 187.581 21.561L184.152 18.411C183.99 18.471 183.843 18.549 183.711 18.645C183.585 18.735 183.477 18.837 183.387 18.951C183.273 19.101 183.183 19.278 183.117 19.482C183.057 19.68 183.027 19.899 183.027 20.139C183.033 20.415 183.078 20.661 183.162 20.877C183.246 21.087 183.357 21.276 183.495 21.444C183.711 21.72 184.02 21.918 184.422 22.038C184.824 22.152 185.211 22.209 185.583 22.209ZM79.44 50V37.04H81.609V47.966H87.333V50H79.44ZM88.6777 38.804V36.815H90.8467V38.804H88.6777ZM88.6777 50V40.28H90.8467V50H88.6777ZM97.2686 54.59C96.7286 54.59 96.2096 54.506 95.7116 54.338C95.2196 54.17 94.7756 53.927 94.3796 53.609C93.9836 53.297 93.6596 52.919 93.4076 52.475L95.4056 51.485C95.5916 51.839 95.8526 52.1 96.1886 52.268C96.5306 52.442 96.8936 52.529 97.2776 52.529C97.7276 52.529 98.1296 52.448 98.4836 52.286C98.8376 52.13 99.1106 51.896 99.3026 51.584C99.5006 51.278 99.5936 50.894 99.5816 50.432V47.669H99.8516V40.28H101.751V50.468C101.751 50.714 101.739 50.948 101.715 51.17C101.697 51.398 101.664 51.62 101.616 51.836C101.472 52.466 101.196 52.982 100.788 53.384C100.38 53.792 99.8726 54.095 99.2666 54.293C98.6666 54.491 98.0006 54.59 97.2686 54.59ZM97.0796 50.27C96.1856 50.27 95.4056 50.045 94.7396 49.595C94.0736 49.145 93.5576 48.533 93.1916 47.759C92.8256 46.985 92.6426 46.112 92.6426 45.14C92.6426 44.156 92.8256 43.28 93.1916 42.512C93.5636 41.738 94.0886 41.129 94.7666 40.685C95.4446 40.235 96.2426 40.01 97.1606 40.01C98.0846 40.01 98.8586 40.235 99.4826 40.685C100.113 41.129 100.59 41.738 100.914 42.512C101.238 43.286 101.4 44.162 101.4 45.14C101.4 46.106 101.238 46.979 100.914 47.759C100.59 48.533 100.107 49.145 99.4646 49.595C98.8226 50.045 98.0276 50.27 97.0796 50.27ZM97.4126 48.326C97.9946 48.326 98.4626 48.194 98.8166 47.93C99.1766 47.66 99.4376 47.285 99.5996 46.805C99.7676 46.325 99.8516 45.77 99.8516 45.14C99.8516 44.504 99.7676 43.949 99.5996 43.475C99.4376 42.995 99.1826 42.623 98.8346 42.359C98.4866 42.089 98.0366 41.954 97.4846 41.954C96.9026 41.954 96.4226 42.098 96.0446 42.386C95.6666 42.668 95.3876 43.052 95.2076 43.538C95.0276 44.018 94.9376 44.552 94.9376 45.14C94.9376 45.734 95.0246 46.274 95.1986 46.76C95.3786 47.24 95.6516 47.621 96.0176 47.903C96.3836 48.185 96.8486 48.326 97.4126 48.326ZM110.637 50V45.32C110.637 45.014 110.616 44.675 110.574 44.303C110.532 43.931 110.433 43.574 110.277 43.232C110.127 42.884 109.899 42.599 109.593 42.377C109.293 42.155 108.885 42.044 108.369 42.044C108.093 42.044 107.82 42.089 107.55 42.179C107.28 42.269 107.034 42.425 106.812 42.647C106.596 42.863 106.422 43.163 106.29 43.547C106.158 43.925 106.092 44.411 106.092 45.005L104.805 44.456C104.805 43.628 104.964 42.878 105.282 42.206C105.606 41.534 106.08 41 106.704 40.604C107.328 40.202 108.096 40.001 109.008 40.001C109.728 40.001 110.322 40.121 110.79 40.361C111.258 40.601 111.63 40.907 111.906 41.279C112.182 41.651 112.386 42.047 112.518 42.467C112.65 42.887 112.734 43.286 112.77 43.664C112.812 44.036 112.833 44.339 112.833 44.573V50H110.637ZM103.896 50V37.04H105.831V43.862H106.092V50H103.896ZM120.519 50C119.877 50.12 119.247 50.171 118.629 50.153C118.017 50.141 117.468 50.03 116.982 49.82C116.496 49.604 116.127 49.265 115.875 48.803C115.653 48.383 115.536 47.954 115.524 47.516C115.512 47.078 115.506 46.583 115.506 46.031V37.58H117.666V45.905C117.666 46.295 117.669 46.637 117.675 46.931C117.687 47.225 117.75 47.465 117.864 47.651C118.08 48.011 118.425 48.212 118.899 48.254C119.373 48.296 119.913 48.272 120.519 48.182V50ZM113.742 41.981V40.28H120.519V41.981H113.742ZM124.319 50L121.349 40.262L123.473 40.28L125.372 46.517L127.298 40.28H129.125L131.042 46.517L132.95 40.28H135.074L132.104 50H130.412L128.207 43.313L126.011 50H124.319ZM140.406 50.27C139.422 50.27 138.558 50.057 137.814 49.631C137.07 49.205 136.488 48.614 136.068 47.858C135.654 47.102 135.447 46.232 135.447 45.248C135.447 44.186 135.651 43.265 136.059 42.485C136.467 41.699 137.034 41.09 137.76 40.658C138.486 40.226 139.326 40.01 140.28 40.01C141.288 40.01 142.143 40.247 142.845 40.721C143.553 41.189 144.078 41.852 144.42 42.71C144.762 43.568 144.891 44.579 144.807 45.743H142.656V44.951C142.65 43.895 142.464 43.124 142.098 42.638C141.732 42.152 141.156 41.909 140.37 41.909C139.482 41.909 138.822 42.185 138.39 42.737C137.958 43.283 137.742 44.084 137.742 45.14C137.742 46.124 137.958 46.886 138.39 47.426C138.822 47.966 139.452 48.236 140.28 48.236C140.814 48.236 141.273 48.119 141.657 47.885C142.047 47.645 142.347 47.3 142.557 46.85L144.699 47.498C144.327 48.374 143.751 49.055 142.971 49.541C142.197 50.027 141.342 50.27 140.406 50.27ZM137.058 45.743V44.105H143.745V45.743H137.058ZM146.635 38.804V36.815H148.804V38.804H146.635ZM146.635 50V40.28H148.804V50H146.635ZM155.226 54.59C154.686 54.59 154.167 54.506 153.669 54.338C153.177 54.17 152.733 53.927 152.337 53.609C151.941 53.297 151.617 52.919 151.365 52.475L153.363 51.485C153.549 51.839 153.81 52.1 154.146 52.268C154.488 52.442 154.851 52.529 155.235 52.529C155.685 52.529 156.087 52.448 156.441 52.286C156.795 52.13 157.068 51.896 157.26 51.584C157.458 51.278 157.551 50.894 157.539 50.432V47.669H157.809V40.28H159.708V50.468C159.708 50.714 159.696 50.948 159.672 51.17C159.654 51.398 159.621 51.62 159.573 51.836C159.429 52.466 159.153 52.982 158.745 53.384C158.337 53.792 157.83 54.095 157.224 54.293C156.624 54.491 155.958 54.59 155.226 54.59ZM155.037 50.27C154.143 50.27 153.363 50.045 152.697 49.595C152.031 49.145 151.515 48.533 151.149 47.759C150.783 46.985 150.6 46.112 150.6 45.14C150.6 44.156 150.783 43.28 151.149 42.512C151.521 41.738 152.046 41.129 152.724 40.685C153.402 40.235 154.2 40.01 155.118 40.01C156.042 40.01 156.816 40.235 157.44 40.685C158.07 41.129 158.547 41.738 158.871 42.512C159.195 43.286 159.357 44.162 159.357 45.14C159.357 46.106 159.195 46.979 158.871 47.759C158.547 48.533 158.064 49.145 157.422 49.595C156.78 50.045 155.985 50.27 155.037 50.27ZM155.37 48.326C155.952 48.326 156.42 48.194 156.774 47.93C157.134 47.66 157.395 47.285 157.557 46.805C157.725 46.325 157.809 45.77 157.809 45.14C157.809 44.504 157.725 43.949 157.557 43.475C157.395 42.995 157.14 42.623 156.792 42.359C156.444 42.089 155.994 41.954 155.442 41.954C154.86 41.954 154.38 42.098 154.002 42.386C153.624 42.668 153.345 43.052 153.165 43.538C152.985 44.018 152.895 44.552 152.895 45.14C152.895 45.734 152.982 46.274 153.156 46.76C153.336 47.24 153.609 47.621 153.975 47.903C154.341 48.185 154.806 48.326 155.37 48.326ZM168.595 50V45.32C168.595 45.014 168.574 44.675 168.532 44.303C168.49 43.931 168.391 43.574 168.235 43.232C168.085 42.884 167.857 42.599 167.551 42.377C167.251 42.155 166.843 42.044 166.327 42.044C166.051 42.044 165.778 42.089 165.508 42.179C165.238 42.269 164.992 42.425 164.77 42.647C164.554 42.863 164.38 43.163 164.248 43.547C164.116 43.925 164.05 44.411 164.05 45.005L162.763 44.456C162.763 43.628 162.922 42.878 163.24 42.206C163.564 41.534 164.038 41 164.662 40.604C165.286 40.202 166.054 40.001 166.966 40.001C167.686 40.001 168.28 40.121 168.748 40.361C169.216 40.601 169.588 40.907 169.864 41.279C170.14 41.651 170.344 42.047 170.476 42.467C170.608 42.887 170.692 43.286 170.728 43.664C170.77 44.036 170.791 44.339 170.791 44.573V50H168.595ZM161.854 50V37.04H163.789V43.862H164.05V50H161.854ZM178.476 50C177.834 50.12 177.204 50.171 176.586 50.153C175.974 50.141 175.425 50.03 174.939 49.82C174.453 49.604 174.084 49.265 173.832 48.803C173.61 48.383 173.493 47.954 173.481 47.516C173.469 47.078 173.463 46.583 173.463 46.031V37.58H175.623V45.905C175.623 46.295 175.626 46.637 175.632 46.931C175.644 47.225 175.707 47.465 175.821 47.651C176.037 48.011 176.382 48.212 176.856 48.254C177.33 48.296 177.87 48.272 178.476 48.182V50ZM171.699 41.981V40.28H178.476V41.981H171.699Z" fill="#64607D"/>
</svg>
