<svg width="225" height="60" viewBox="0 0 225 60" fill="none" xmlns="http://www.w3.org/2000/svg">
<rect width="60" height="60" rx="5" fill="#E9ECF2"/>
<path d="M29.9968 20.0828L23.428 22.1797C23.3983 23.914 23.3233 25.6125 23.253 27.3189C23.2186 28.1032 23.1889 28.8954 23.1593 29.6626L23.153 29.7501C23.1061 30.9564 23.0483 32.5501 23.4639 33.6048C23.6389 34.0564 23.9327 34.4783 24.2671 34.8642C24.6249 35.2735 25.0343 35.6485 25.4327 35.9954C26.8327 37.2079 28.4327 38.3626 29.9907 39.4704C31.5548 38.3626 33.1548 37.2142 34.5487 35.9954C34.9471 35.6501 35.3565 35.2751 35.7143 34.8642C36.0534 34.4782 36.3409 34.0564 36.5175 33.6048C36.9331 32.5439 36.8753 30.9501 36.8284 29.7501L36.8221 29.6626C36.7925 28.9017 36.7581 28.1095 36.7284 27.3189C36.6581 25.6142 36.5815 23.9142 36.5534 22.1797L29.9846 20.0828H29.9968ZM22.6264 21.125L29.8044 18.8344C29.9216 18.7937 30.056 18.7937 30.1857 18.8344L37.3513 21.1187C37.6091 21.189 37.8028 21.4297 37.8075 21.7109C37.8309 23.55 37.9122 25.4016 37.9887 27.2657C38.0231 28.0329 38.0528 28.8064 38.0825 29.6157L38.0887 29.7032C38.1419 31.022 38.2059 32.7673 37.6903 34.0624C37.4559 34.6546 37.0872 35.1937 36.6653 35.6796C36.2606 36.1484 35.8044 36.564 35.37 36.939C33.8231 38.2812 32.0715 39.5281 30.378 40.7233L30.367 40.7343C30.1561 40.8921 29.8639 40.9046 29.6343 40.7405L29.6108 40.7233C27.9171 39.5218 26.1655 38.2796 24.6188 36.939C24.186 36.564 23.7345 36.1483 23.3235 35.6796C22.9016 35.1937 22.5329 34.6546 22.2985 34.0624C21.7891 32.7671 21.8532 31.0218 21.9063 29.7032L21.9126 29.6157C21.9422 28.8126 21.9766 28.0392 22.0063 27.2657C22.0876 25.4032 22.1641 23.5564 22.1876 21.7109C22.1938 21.4469 22.3579 21.2078 22.6204 21.125H22.6264Z" fill="black"/>
<path d="M30.1908 15.6656L40.0628 18.8172C40.3269 18.8984 40.4956 19.1453 40.4956 19.4094C40.4956 22.814 40.6237 25.4158 40.7237 27.5002C41.1565 36.3938 41.1628 36.5238 30.3533 44.2518C30.1252 44.4096 29.8315 44.3986 29.6205 44.2455C18.8285 36.5235 18.8345 36.4003 19.2613 27.5063C19.3613 25.4141 19.4895 22.8127 19.4895 19.4155C19.4895 19.1171 19.7004 18.8655 19.9817 18.8061L29.8065 15.6718C29.9346 15.6312 30.0705 15.6374 30.1877 15.6718L30.1908 15.6656ZM39.2548 19.8608L30.0032 16.9077L20.7516 19.8608C20.7407 23.0077 20.6172 25.52 20.5172 27.5592C20.125 35.692 20.1126 35.9028 30.0032 42.9748C39.894 35.8968 39.8812 35.6856 39.4892 27.5592C39.3892 25.5201 39.2674 23.006 39.2549 19.8608H39.2548Z" fill="black"/>
<path d="M34.5608 26.6624C34.8061 26.4171 35.1999 26.4171 35.4452 26.6624C35.6904 26.9077 35.6905 27.3015 35.4452 27.5467L28.936 34.0559C28.6906 34.3012 28.2969 34.3012 28.0516 34.0559L24.5532 30.5575C24.3078 30.3122 24.3078 29.9184 24.5532 29.6731C24.7985 29.4278 25.1922 29.4278 25.4375 29.6731L28.4953 32.7309L34.5657 26.6605L34.5608 26.6624Z" fill="black"/>
<path d="M19.808 31.9248C20.1533 31.9248 20.4346 32.2061 20.4346 32.5514C20.4346 32.8967 20.1533 33.1779 19.808 33.1779H14.9972C14.6519 33.1779 14.3706 32.8967 14.3706 32.5514V23.125C14.3706 22.7797 14.6519 22.4984 14.9972 22.4984H19.9536C20.2989 22.4984 20.5802 22.7797 20.5802 23.125C20.5802 23.4703 20.2989 23.7515 19.9536 23.7515H15.624V31.9251L19.808 31.9248ZM40.0392 23.7512C39.6939 23.7512 39.4126 23.47 39.4126 23.1247C39.4126 22.7794 39.6939 22.4981 40.0392 22.4981H44.9956C45.3409 22.4981 45.6222 22.7794 45.6222 23.1247V32.5511C45.6222 32.8964 45.3409 33.1776 44.9956 33.1776H40.1848C39.8395 33.1776 39.5582 32.8964 39.5582 32.5511C39.5582 32.2058 39.8395 31.9245 40.1848 31.9245H44.3676V23.7509H40.038L40.0392 23.7512Z" fill="black"/>
<path d="M84.057 24.27C83.109 24.27 82.254 24.105 81.492 23.775C80.736 23.445 80.112 22.974 79.62 22.362C79.134 21.744 78.825 21.012 78.693 20.166L80.943 19.824C81.135 20.592 81.528 21.186 82.122 21.606C82.722 22.026 83.412 22.236 84.192 22.236C84.654 22.236 85.089 22.164 85.497 22.02C85.905 21.876 86.235 21.666 86.487 21.39C86.745 21.114 86.874 20.775 86.874 20.373C86.874 20.193 86.844 20.028 86.784 19.878C86.724 19.722 86.634 19.584 86.514 19.464C86.4 19.344 86.25 19.236 86.064 19.14C85.884 19.038 85.674 18.951 85.434 18.879L82.086 17.889C81.798 17.805 81.486 17.694 81.15 17.556C80.82 17.412 80.505 17.217 80.205 16.971C79.911 16.719 79.668 16.401 79.476 16.017C79.29 15.627 79.197 15.147 79.197 14.577C79.197 13.743 79.407 13.044 79.827 12.48C80.253 11.91 80.823 11.484 81.537 11.202C82.257 10.92 83.055 10.782 83.931 10.788C84.819 10.794 85.611 10.947 86.307 11.247C87.003 11.541 87.585 11.97 88.053 12.534C88.521 13.098 88.851 13.779 89.043 14.577L86.712 14.982C86.616 14.526 86.43 14.139 86.154 13.821C85.884 13.497 85.551 13.251 85.155 13.083C84.765 12.915 84.348 12.825 83.904 12.813C83.472 12.807 83.07 12.873 82.698 13.011C82.332 13.143 82.035 13.335 81.807 13.587C81.585 13.839 81.474 14.133 81.474 14.469C81.474 14.787 81.57 15.048 81.762 15.252C81.954 15.45 82.191 15.609 82.473 15.729C82.761 15.843 83.052 15.939 83.346 16.017L85.668 16.665C85.986 16.749 86.343 16.863 86.739 17.007C87.135 17.151 87.516 17.352 87.882 17.61C88.248 17.868 88.548 18.207 88.782 18.627C89.022 19.047 89.142 19.581 89.142 20.229C89.142 20.901 89.001 21.492 88.719 22.002C88.443 22.506 88.068 22.926 87.594 23.262C87.12 23.598 86.577 23.85 85.965 24.018C85.359 24.186 84.723 24.27 84.057 24.27ZM94.3751 24.279C93.6551 24.279 93.0611 24.159 92.5931 23.919C92.1251 23.679 91.7531 23.373 91.4771 23.001C91.2011 22.629 90.9971 22.233 90.8651 21.813C90.7331 21.393 90.6461 20.997 90.6041 20.625C90.5681 20.247 90.5501 19.941 90.5501 19.707V14.28H92.7461V18.96C92.7461 19.26 92.7671 19.599 92.8091 19.977C92.8511 20.349 92.9471 20.709 93.0971 21.057C93.2531 21.399 93.4811 21.681 93.7811 21.903C94.0871 22.125 94.4981 22.236 95.0141 22.236C95.2901 22.236 95.5631 22.191 95.8331 22.101C96.1031 22.011 96.3461 21.858 96.5621 21.642C96.7841 21.42 96.9611 21.117 97.0931 20.733C97.2251 20.349 97.2911 19.863 97.2911 19.275L98.5781 19.824C98.5781 20.652 98.4161 21.402 98.0921 22.074C97.7741 22.746 97.3031 23.283 96.6791 23.685C96.0551 24.081 95.2871 24.279 94.3751 24.279ZM97.5521 24V20.985H97.2911V14.28H99.4691V24H97.5521ZM106.309 24.27C105.361 24.27 104.566 24.045 103.924 23.595C103.282 23.145 102.799 22.533 102.475 21.759C102.151 20.979 101.989 20.106 101.989 19.14C101.989 18.162 102.151 17.286 102.475 16.512C102.799 15.738 103.273 15.129 103.897 14.685C104.527 14.235 105.304 14.01 106.228 14.01C107.146 14.01 107.941 14.235 108.613 14.685C109.291 15.129 109.816 15.738 110.188 16.512C110.56 17.28 110.746 18.156 110.746 19.14C110.746 20.112 110.563 20.985 110.197 21.759C109.831 22.533 109.315 23.145 108.649 23.595C107.983 24.045 107.203 24.27 106.309 24.27ZM101.62 28.32V14.28H103.537V21.102H103.807V28.32H101.62ZM105.976 22.326C106.54 22.326 107.005 22.185 107.371 21.903C107.737 21.621 108.007 21.24 108.181 20.76C108.361 20.274 108.451 19.734 108.451 19.14C108.451 18.552 108.361 18.018 108.181 17.538C108.001 17.052 107.722 16.668 107.344 16.386C106.966 16.098 106.486 15.954 105.904 15.954C105.352 15.954 104.902 16.089 104.554 16.359C104.206 16.623 103.948 16.995 103.78 17.475C103.618 17.949 103.537 18.504 103.537 19.14C103.537 19.77 103.618 20.325 103.78 20.805C103.948 21.285 104.209 21.66 104.563 21.93C104.923 22.194 105.394 22.326 105.976 22.326ZM117.04 24.27C116.092 24.27 115.297 24.045 114.655 23.595C114.013 23.145 113.53 22.533 113.206 21.759C112.882 20.979 112.72 20.106 112.72 19.14C112.72 18.162 112.882 17.286 113.206 16.512C113.53 15.738 114.004 15.129 114.628 14.685C115.258 14.235 116.035 14.01 116.959 14.01C117.877 14.01 118.672 14.235 119.344 14.685C120.022 15.129 120.547 15.738 120.919 16.512C121.291 17.28 121.477 18.156 121.477 19.14C121.477 20.112 121.294 20.985 120.928 21.759C120.562 22.533 120.046 23.145 119.38 23.595C118.714 24.045 117.934 24.27 117.04 24.27ZM112.351 28.32V14.28H114.268V21.102H114.538V28.32H112.351ZM116.707 22.326C117.271 22.326 117.736 22.185 118.102 21.903C118.468 21.621 118.738 21.24 118.912 20.76C119.092 20.274 119.182 19.734 119.182 19.14C119.182 18.552 119.092 18.018 118.912 17.538C118.732 17.052 118.453 16.668 118.075 16.386C117.697 16.098 117.217 15.954 116.635 15.954C116.083 15.954 115.633 16.089 115.285 16.359C114.937 16.623 114.679 16.995 114.511 17.475C114.349 17.949 114.268 18.504 114.268 19.14C114.268 19.77 114.349 20.325 114.511 20.805C114.679 21.285 114.94 21.66 115.294 21.93C115.654 22.194 116.125 22.326 116.707 22.326ZM127.394 24.27C126.422 24.27 125.573 24.051 124.847 23.613C124.121 23.175 123.557 22.572 123.155 21.804C122.759 21.03 122.561 20.142 122.561 19.14C122.561 18.12 122.765 17.226 123.173 16.458C123.581 15.69 124.148 15.09 124.874 14.658C125.6 14.226 126.44 14.01 127.394 14.01C128.372 14.01 129.224 14.229 129.95 14.667C130.676 15.105 131.24 15.711 131.642 16.485C132.044 17.253 132.245 18.138 132.245 19.14C132.245 20.148 132.041 21.039 131.633 21.813C131.231 22.581 130.667 23.184 129.941 23.622C129.215 24.054 128.366 24.27 127.394 24.27ZM127.394 22.236C128.258 22.236 128.9 21.948 129.32 21.372C129.74 20.796 129.95 20.052 129.95 19.14C129.95 18.198 129.737 17.448 129.311 16.89C128.885 16.326 128.246 16.044 127.394 16.044C126.812 16.044 126.332 16.176 125.954 16.44C125.582 16.698 125.306 17.061 125.126 17.529C124.946 17.991 124.856 18.528 124.856 19.14C124.856 20.082 125.069 20.835 125.495 21.399C125.927 21.957 126.56 22.236 127.394 22.236ZM133.868 24V14.28H135.785V16.647L135.551 16.341C135.671 16.017 135.83 15.723 136.028 15.459C136.232 15.189 136.475 14.967 136.757 14.793C136.997 14.631 137.261 14.505 137.549 14.415C137.843 14.319 138.143 14.262 138.449 14.244C138.755 14.22 139.052 14.232 139.34 14.28V16.305C139.052 16.221 138.719 16.194 138.341 16.224C137.969 16.254 137.633 16.359 137.333 16.539C137.033 16.701 136.787 16.908 136.595 17.16C136.409 17.412 136.271 17.7 136.181 18.024C136.091 18.342 136.046 18.687 136.046 19.059V24H133.868ZM146.395 24C145.753 24.12 145.123 24.171 144.505 24.153C143.893 24.141 143.344 24.03 142.858 23.82C142.372 23.604 142.003 23.265 141.751 22.803C141.529 22.383 141.412 21.954 141.4 21.516C141.388 21.078 141.382 20.583 141.382 20.031V11.58H143.542V19.905C143.542 20.295 143.545 20.637 143.551 20.931C143.563 21.225 143.626 21.465 143.74 21.651C143.956 22.011 144.301 22.212 144.775 22.254C145.249 22.296 145.789 22.272 146.395 22.182V24ZM139.618 15.981V14.28H146.395V15.981H139.618ZM152.052 24.27C151.068 24.27 150.204 24.057 149.46 23.631C148.716 23.205 148.134 22.614 147.714 21.858C147.3 21.102 147.093 20.232 147.093 19.248C147.093 18.186 147.297 17.265 147.705 16.485C148.113 15.699 148.68 15.09 149.406 14.658C150.132 14.226 150.972 14.01 151.926 14.01C152.934 14.01 153.789 14.247 154.491 14.721C155.199 15.189 155.724 15.852 156.066 16.71C156.408 17.568 156.537 18.579 156.453 19.743H154.302V18.951C154.296 17.895 154.11 17.124 153.744 16.638C153.378 16.152 152.802 15.909 152.016 15.909C151.128 15.909 150.468 16.185 150.036 16.737C149.604 17.283 149.388 18.084 149.388 19.14C149.388 20.124 149.604 20.886 150.036 21.426C150.468 21.966 151.098 22.236 151.926 22.236C152.46 22.236 152.919 22.119 153.303 21.885C153.693 21.645 153.993 21.3 154.203 20.85L156.345 21.498C155.973 22.374 155.397 23.055 154.617 23.541C153.843 24.027 152.988 24.27 152.052 24.27ZM148.704 19.743V18.105H155.391V19.743H148.704ZM161.998 24.27C161.104 24.27 160.324 24.045 159.658 23.595C158.992 23.145 158.476 22.533 158.11 21.759C157.744 20.985 157.561 20.112 157.561 19.14C157.561 18.156 157.744 17.28 158.11 16.512C158.482 15.738 159.007 15.129 159.685 14.685C160.363 14.235 161.161 14.01 162.079 14.01C163.003 14.01 163.777 14.235 164.401 14.685C165.031 15.129 165.508 15.738 165.832 16.512C166.156 17.286 166.318 18.162 166.318 19.14C166.318 20.106 166.156 20.979 165.832 21.759C165.508 22.533 165.025 23.145 164.383 23.595C163.741 24.045 162.946 24.27 161.998 24.27ZM162.331 22.326C162.913 22.326 163.381 22.194 163.735 21.93C164.095 21.66 164.356 21.285 164.518 20.805C164.686 20.325 164.77 19.77 164.77 19.14C164.77 18.504 164.686 17.949 164.518 17.475C164.356 16.995 164.101 16.623 163.753 16.359C163.405 16.089 162.955 15.954 162.403 15.954C161.821 15.954 161.341 16.098 160.963 16.386C160.585 16.668 160.306 17.052 160.126 17.538C159.946 18.018 159.856 18.552 159.856 19.14C159.856 19.734 159.943 20.274 160.117 20.76C160.297 21.24 160.57 21.621 160.936 21.903C161.302 22.185 161.767 22.326 162.331 22.326ZM164.77 24V17.178H164.5V11.04H166.687V24H164.77ZM78.36 50L82.446 37.04H85.623L89.709 50H87.477L83.769 38.372H84.255L80.592 50H78.36ZM80.637 47.192V45.167H87.441V47.192H80.637ZM91.1562 50V36.77H93.3252V50H91.1562ZM95.8411 50V36.77H98.0101V50H95.8411ZM104.639 50.27C103.667 50.27 102.818 50.051 102.092 49.613C101.366 49.175 100.802 48.572 100.4 47.804C100.004 47.03 99.806 46.142 99.806 45.14C99.806 44.12 100.01 43.226 100.418 42.458C100.826 41.69 101.393 41.09 102.119 40.658C102.845 40.226 103.685 40.01 104.639 40.01C105.617 40.01 106.469 40.229 107.195 40.667C107.921 41.105 108.485 41.711 108.887 42.485C109.289 43.253 109.49 44.138 109.49 45.14C109.49 46.148 109.286 47.039 108.878 47.813C108.476 48.581 107.912 49.184 107.186 49.622C106.46 50.054 105.611 50.27 104.639 50.27ZM104.639 48.236C105.503 48.236 106.145 47.948 106.565 47.372C106.985 46.796 107.195 46.052 107.195 45.14C107.195 44.198 106.982 43.448 106.556 42.89C106.13 42.326 105.491 42.044 104.639 42.044C104.057 42.044 103.577 42.176 103.199 42.44C102.827 42.698 102.551 43.061 102.371 43.529C102.191 43.991 102.101 44.528 102.101 45.14C102.101 46.082 102.314 46.835 102.74 47.399C103.172 47.957 103.805 48.236 104.639 48.236ZM112.831 50L109.861 40.262L111.985 40.28L113.884 46.517L115.81 40.28H117.637L119.554 46.517L121.462 40.28H123.586L120.616 50H118.924L116.719 43.313L114.523 50H112.831ZM127.024 50.27C126.322 50.27 125.728 50.138 125.242 49.874C124.756 49.604 124.387 49.247 124.135 48.803C123.889 48.359 123.766 47.87 123.766 47.336C123.766 46.868 123.844 46.448 124 46.076C124.156 45.698 124.396 45.374 124.72 45.104C125.044 44.828 125.464 44.603 125.98 44.429C126.37 44.303 126.826 44.189 127.348 44.087C127.876 43.985 128.446 43.892 129.058 43.808C129.676 43.718 130.321 43.622 130.993 43.52L130.219 43.961C130.225 43.289 130.075 42.794 129.769 42.476C129.463 42.158 128.947 41.999 128.221 41.999C127.783 41.999 127.36 42.101 126.952 42.305C126.544 42.509 126.259 42.86 126.097 43.358L124.117 42.737C124.357 41.915 124.813 41.255 125.485 40.757C126.163 40.259 127.075 40.01 128.221 40.01C129.085 40.01 129.844 40.151 130.498 40.433C131.158 40.715 131.647 41.177 131.965 41.819C132.139 42.161 132.244 42.512 132.28 42.872C132.316 43.226 132.334 43.613 132.334 44.033V50H130.435V47.894L130.75 48.236C130.312 48.938 129.799 49.454 129.211 49.784C128.629 50.108 127.9 50.27 127.024 50.27ZM127.456 48.542C127.948 48.542 128.368 48.455 128.716 48.281C129.064 48.107 129.34 47.894 129.544 47.642C129.754 47.39 129.895 47.153 129.967 46.931C130.081 46.655 130.144 46.34 130.156 45.986C130.174 45.626 130.183 45.335 130.183 45.113L130.849 45.311C130.195 45.413 129.634 45.503 129.166 45.581C128.698 45.659 128.296 45.734 127.96 45.806C127.624 45.872 127.327 45.947 127.069 46.031C126.817 46.121 126.604 46.226 126.43 46.346C126.256 46.466 126.121 46.604 126.025 46.76C125.935 46.916 125.89 47.099 125.89 47.309C125.89 47.549 125.95 47.762 126.07 47.948C126.19 48.128 126.364 48.272 126.592 48.38C126.826 48.488 127.114 48.542 127.456 48.542ZM141.04 50V45.32C141.04 45.014 141.019 44.675 140.977 44.303C140.935 43.931 140.836 43.574 140.68 43.232C140.53 42.884 140.302 42.599 139.996 42.377C139.696 42.155 139.288 42.044 138.772 42.044C138.496 42.044 138.223 42.089 137.953 42.179C137.683 42.269 137.437 42.425 137.215 42.647C136.999 42.863 136.825 43.163 136.693 43.547C136.561 43.925 136.495 44.411 136.495 45.005L135.208 44.456C135.208 43.628 135.367 42.878 135.685 42.206C136.009 41.534 136.483 41 137.107 40.604C137.731 40.202 138.499 40.001 139.411 40.001C140.131 40.001 140.725 40.121 141.193 40.361C141.661 40.601 142.033 40.907 142.309 41.279C142.585 41.651 142.789 42.047 142.921 42.467C143.053 42.887 143.137 43.286 143.173 43.664C143.215 44.036 143.236 44.339 143.236 44.573V50H141.04ZM134.299 50V40.28H136.234V43.295H136.495V50H134.299ZM149.287 50.27C148.285 50.27 147.43 50.048 146.722 49.604C146.014 49.154 145.471 48.542 145.093 47.768C144.721 46.994 144.532 46.118 144.526 45.14C144.532 44.144 144.727 43.262 145.111 42.494C145.501 41.72 146.053 41.114 146.767 40.676C147.481 40.232 148.33 40.01 149.314 40.01C150.418 40.01 151.351 40.289 152.113 40.847C152.881 41.399 153.382 42.155 153.616 43.115L151.456 43.7C151.288 43.178 151.009 42.773 150.619 42.485C150.229 42.191 149.785 42.044 149.287 42.044C148.723 42.044 148.258 42.179 147.892 42.449C147.526 42.713 147.256 43.079 147.082 43.547C146.908 44.015 146.821 44.546 146.821 45.14C146.821 46.064 147.028 46.811 147.442 47.381C147.856 47.951 148.471 48.236 149.287 48.236C149.863 48.236 150.316 48.104 150.646 47.84C150.982 47.576 151.234 47.195 151.402 46.697L153.616 47.192C153.316 48.182 152.791 48.944 152.041 49.478C151.291 50.006 150.373 50.27 149.287 50.27ZM159.215 50.27C158.231 50.27 157.367 50.057 156.623 49.631C155.879 49.205 155.297 48.614 154.877 47.858C154.463 47.102 154.256 46.232 154.256 45.248C154.256 44.186 154.46 43.265 154.868 42.485C155.276 41.699 155.843 41.09 156.569 40.658C157.295 40.226 158.135 40.01 159.089 40.01C160.097 40.01 160.952 40.247 161.654 40.721C162.362 41.189 162.887 41.852 163.229 42.71C163.571 43.568 163.7 44.579 163.616 45.743H161.465V44.951C161.459 43.895 161.273 43.124 160.907 42.638C160.541 42.152 159.965 41.909 159.179 41.909C158.291 41.909 157.631 42.185 157.199 42.737C156.767 43.283 156.551 44.084 156.551 45.14C156.551 46.124 156.767 46.886 157.199 47.426C157.631 47.966 158.261 48.236 159.089 48.236C159.623 48.236 160.082 48.119 160.466 47.885C160.856 47.645 161.156 47.3 161.366 46.85L163.508 47.498C163.136 48.374 162.56 49.055 161.78 49.541C161.006 50.027 160.151 50.27 159.215 50.27ZM155.867 45.743V44.105H162.554V45.743H155.867Z" fill="#64607D"/>
</svg>
